HIERARCHY
ROOT joint_0
{
	OFFSET 0.000000 0.000000 0.000000
	CHANNELS 6 Xposition Yposition Zposition Zrotation Yrotation Xrotation 
	JOINT joint_1
	{
		OFFSET 0.511002 1.944000 108.288940
		CHANNELS 3 Zrotation Yrotation Xrotation
		JOINT joint_2
		{
			OFFSET -9.074005 1.512993 98.440063
			CHANNELS 3 Zrotation Yrotation Xrotation
			JOINT joint_3
			{
				OFFSET -8.590996 1.815002 98.366943
				CHANNELS 3 Zrotation Yrotation Xrotation
				JOINT joint_4
				{
					OFFSET 2.489998 3.531998 136.462036
					CHANNELS 3 Zrotation Yrotation Xrotation
					JOINT joint_5
					{
						OFFSET 22.708000 2.955002 80.357056
						CHANNELS 3 Zrotation Yrotation Xrotation
						End Site
						{
							OFFSET 0.000000 0.000000 0.000000
						}
					}
				}
				JOINT joint_6
				{
					OFFSET 2.860001 -27.684998 77.234009
					CHANNELS 3 Zrotation Yrotation Xrotation
					JOINT joint_7
					{
						OFFSET 5.449997 -131.244003 -18.851929
						CHANNELS 3 Zrotation Yrotation Xrotation
						JOINT joint_8
						{
							OFFSET 35.757000 -24.661995 -264.074097
							CHANNELS 3 Zrotation Yrotation Xrotation
							JOINT joint_9
							{
								OFFSET 49.392001 -1.747002 -239.960938
								CHANNELS 3 Zrotation Yrotation Xrotation
								End Site
								{
									OFFSET 0.000000 0.000000 0.000000
								}
							}
						}
					}
				}
				JOINT joint_10
				{
					OFFSET -0.127998 31.625000 75.753052
					CHANNELS 3 Zrotation Yrotation Xrotation
					JOINT joint_11
					{
						OFFSET -5.618004 131.132996 -19.557007
						CHANNELS 3 Zrotation Yrotation Xrotation
						JOINT joint_12
						{
							OFFSET 46.488998 30.127991 -261.826050
							CHANNELS 3 Zrotation Yrotation Xrotation
							JOINT joint_13
							{
								OFFSET 66.021003 0.474030 -235.934937
								CHANNELS 3 Zrotation Yrotation Xrotation
								End Site
								{
									OFFSET 0.000000 0.000000 0.000000
								}
							}
						}
					}
				}
			}
		}
	}
	JOINT joint_14
	{
		OFFSET 15.887001 -78.871004 -94.561035
		CHANNELS 3 Zrotation Yrotation Xrotation
		JOINT joint_15
		{
			OFFSET -4.133003 6.714001 -473.615967
			CHANNELS 3 Zrotation Yrotation Xrotation
			JOINT joint_16
			{
				OFFSET -19.541000 5.340000 -399.613007
				CHANNELS 3 Zrotation Yrotation Xrotation
				JOINT joint_17
				{
					OFFSET 164.317001 41.657999 -73.195000
					CHANNELS 3 Zrotation Yrotation Xrotation
					End Site
					{
						OFFSET 0.000000 0.000000 0.000000
					}
				}
			}
		}
	}
	JOINT joint_18
	{
		OFFSET 6.513000 77.960991 -96.406982
		CHANNELS 3 Zrotation Yrotation Xrotation
		JOINT joint_19
		{
			OFFSET -10.660004 -8.518997 -473.485016
			CHANNELS 3 Zrotation Yrotation Xrotation
			JOINT joint_20
			{
				OFFSET -36.967995 -11.098999 -398.260010
				CHANNELS 3 Zrotation Yrotation Xrotation
				JOINT joint_21
				{
					OFFSET 166.067997 30.363998 -74.785000
					CHANNELS 3 Zrotation Yrotation Xrotation
					End Site
					{
						OFFSET 0.000000 0.000000 0.000000
					}
				}
			}
		}
	}
}
MOTION
Frames: 9
Frame Time: 0.016667
-2717.986816 897.002991 1059.646973 6.877079 2.275218 0.831603 -0.544306 -2.948286 -1.537446 -0.441035 0.377563 0.317129 -0.469711 -0.654737 -0.200778 0.077416 -5.093517 0.229292 0.000000 0.000000 0.000000 -2.954818 0.986778 -2.885440 0.614029 0.739337 3.384060 -0.246548 3.656214 -0.977309 0.000000 0.000000 0.000000 -6.223570 2.297561 0.971268 0.215477 3.235358 0.460072 -0.283281 1.041155 -1.020946 0.000000 0.000000 0.000000 -4.294703 -0.470933 -4.512545 -4.355022 -1.958013 -0.258118 -4.254872 0.186334 -1.922923 0.000000 0.000000 0.000000 -0.743890 -2.189015 4.090526 -0.557980 -4.462604 -0.561563 -0.717704 4.601030 -1.159850 0.000000 0.000000 0.000000 
-2718.214111 896.634277 1059.651001 6.859556 2.261879 0.822139 -0.541153 -2.938319 -1.525970 -0.439672 0.376095 0.314092 -0.468049 -0.651787 -0.199173 0.074477 -5.069201 0.238327 0.000000 0.000000 0.000000 -2.951884 0.993892 -2.894343 0.614213 0.747959 3.401601 -0.249096 3.649951 -0.990257 0.000000 0.000000 0.000000 -6.226411 2.305255 0.955933 0.213864 3.243346 0.446689 -0.281686 1.046657 -1.015277 0.000000 0.000000 0.000000 -4.291566 -0.482683 -4.480235 -4.351416 -1.939391 -0.260819 -4.251347 0.195546 -1.923850 0.000000 0.000000 0.000000 -0.741782 -2.190991 4.121293 -0.555134 -4.457443 -0.559528 -0.714883 4.612471 -1.160676 0.000000 0.000000 0.000000 
-2718.427246 896.263245 1059.651978 6.840777 2.248329 0.811638 -0.537339 -2.933476 -1.513953 -0.437675 0.375193 0.312028 -0.465789 -0.650865 -0.197509 0.072023 -5.034676 0.244822 0.000000 0.000000 0.000000 -2.948265 1.002060 -2.903258 0.614456 0.757625 3.416786 -0.250803 3.645809 -0.998961 0.000000 0.000000 0.000000 -6.225612 2.313603 0.938973 0.212676 3.251711 0.436506 -0.280956 1.051325 -1.012691 0.000000 0.000000 0.000000 -4.288191 -0.493419 -4.445780 -4.347550 -1.920758 -0.265075 -4.247660 0.204284 -1.924584 0.000000 0.000000 0.000000 -0.739564 -2.192186 4.154026 -0.552097 -4.451038 -0.558618 -0.711956 4.622478 -1.161194 0.000000 0.000000 0.000000 
-2718.622803 895.891357 1059.650024 6.817263 2.237455 0.797580 -0.530998 -2.939539 -1.497346 -0.433706 0.373704 0.310244 -0.461580 -0.650055 -0.195715 0.070089 -4.986925 0.248356 0.000000 0.000000 0.000000 -2.944697 1.011718 -2.912139 0.614778 0.768533 3.427050 -0.250978 3.645431 -0.999966 0.000000 0.000000 0.000000 -6.220238 2.321656 0.918919 0.211821 3.259478 0.430812 -0.281692 1.055390 -1.015345 0.000000 0.000000 0.000000 -4.283360 -0.506013 -4.406003 -4.342176 -1.902705 -0.271619 -4.242620 0.212461 -1.924577 0.000000 0.000000 0.000000 -0.735982 -2.194712 4.191810 -0.547507 -4.444082 -0.559871 -0.707717 4.630785 -1.160819 0.000000 0.000000 0.000000 
-2718.803467 895.519348 1059.645996 6.791806 2.226828 0.782365 -0.522925 -2.951878 -1.478291 -0.428433 0.372600 0.307222 -0.455928 -0.650048 -0.193861 0.068140 -4.928205 0.250992 0.000000 0.000000 0.000000 -2.942760 1.022598 -2.920145 0.615053 0.780275 3.434428 -0.250280 3.646393 -0.996646 0.000000 0.000000 0.000000 -6.213654 2.330046 0.897648 0.211407 3.267647 0.428178 -0.283305 1.058334 -1.021122 0.000000 0.000000 0.000000 -4.277949 -0.518068 -4.364156 -4.336203 -1.884772 -0.279639 -4.237084 0.220007 -1.924191 0.000000 0.000000 0.000000 -0.732070 -2.196639 4.231288 -0.542523 -4.436316 -0.561681 -0.703140 4.637885 -1.160072 0.000000 0.000000 0.000000 
-2718.968750 895.152283 1059.636963 6.768747 2.211612 0.769604 -0.516106 -2.962707 -1.460813 -0.424163 0.371638 0.304502 -0.451317 -0.649092 -0.191999 0.067132 -4.858882 0.249495 0.000000 0.000000 0.000000 -2.938023 1.033307 -2.927963 0.615065 0.792297 3.442576 -0.250084 3.645331 -0.995884 0.000000 0.000000 0.000000 -6.205241 2.338739 0.875547 0.211487 3.276034 0.427382 -0.284645 1.060944 -1.025920 0.000000 0.000000 0.000000 -4.273164 -0.523756 -4.325821 -4.330930 -1.867017 -0.287369 -4.232280 0.225365 -1.923566 0.000000 0.000000 0.000000 -0.728884 -2.194549 4.267967 -0.538335 -4.424686 -0.563839 -0.699276 4.641401 -1.158991 0.000000 0.000000 0.000000 
-2719.125732 894.793213 1059.623047 6.751278 2.191787 0.761496 -0.511966 -2.970881 -1.446617 -0.422121 0.370246 0.302184 -0.449001 -0.648734 -0.190569 0.066569 -4.774738 0.245306 0.000000 0.000000 0.000000 -2.930131 1.044037 -2.934683 0.614505 0.804907 3.452712 -0.251083 3.639847 -1.001236 0.000000 0.000000 0.000000 -6.195137 2.348946 0.853221 0.212659 3.285899 0.427789 -0.285148 1.060029 -1.027693 0.000000 0.000000 0.000000 -4.269924 -0.523493 -4.294028 -4.327282 -1.848847 -0.293918 -4.229101 0.227469 -1.922827 0.000000 0.000000 0.000000 -0.727123 -2.190732 4.298698 -0.535863 -4.406335 -0.565234 -0.696859 4.641026 -1.157847 0.000000 0.000000 0.000000 
-2719.266357 894.440247 1059.604004 6.734947 2.167489 0.756110 -0.508396 -2.977778 -1.433981 -0.420431 0.368400 0.299800 -0.447049 -0.646789 -0.188981 0.066734 -4.680300 0.237653 0.000000 0.000000 0.000000 -2.920313 1.054776 -2.941479 0.613701 0.817859 3.463778 -0.252531 3.632189 -1.008892 0.000000 0.000000 0.000000 -6.184849 2.359583 0.830187 0.214444 3.296364 0.429868 -0.285412 1.057790 -1.028597 0.000000 0.000000 0.000000 -4.267170 -0.517467 -4.266278 -4.324191 -1.829988 -0.299794 -4.226523 0.226609 -1.921596 0.000000 0.000000 0.000000 -0.725967 -2.182615 4.326156 -0.534089 -4.384478 -0.566478 -0.695026 4.637228 -1.156340 0.000000 0.000000 0.000000 
-2719.370117 894.089844 1059.582031 6.714825 2.132597 0.751545 -0.503983 -2.973146 -1.421796 -0.417553 0.364956 0.297853 -0.444068 -0.642563 -0.188084 0.067687 -4.580282 0.226757 0.000000 0.000000 0.000000 -2.911290 1.065533 -2.945414 0.612739 0.830437 3.470375 -0.252830 3.624491 -1.011059 0.000000 0.000000 0.000000 -6.173833 2.370158 0.804571 0.216360 3.306966 0.436116 -0.286452 1.058200 -1.032303 0.000000 0.000000 0.000000 -4.263051 -0.497526 -4.239762 -4.319910 -1.812149 -0.307035 -4.222872 0.224665 -1.919610 0.000000 0.000000 0.000000 -0.723276 -2.157825 4.353161 -0.530344 -4.367079 -0.569000 -0.691480 4.633503 -1.154080 0.000000 0.000000 0.000000 
